name processed_emg_signals
nRows=66
nColumns=7
 
endheader
time	LGLTMED	LRF	LADDLONG	LST	LTA	LGM
0.485	0.3744413213390125	0.1244498284998079	0.2815388315012978	0.0380880447235558	0.0783876149610215	0.3972773264857787
0.486	0.3744778053162117	0.1230682240922932	0.2791640638533917	0.0376287243487241	0.0777702107938204	0.3932179859925206
0.487	0.3747150395917274	0.1218585254624487	0.276959223833926	0.037171258310519	0.0772127612690256	0.3891690037211108
0.488	0.3751496633085898	0.1208189498296943	0.2749222851613822	0.036716156292862	0.0767159470530871	0.3851342497088698
0.489	0.3757781603596792	0.1199475968424762	0.2730510924406339	0.0362639129940526	0.0762804474476031	0.3811175407398552
0.49	0.3765968661042602	0.1192424518522595	0.2713433654529181	0.0358150079731463	0.0759069387103395	0.3771226359606678
0.491	0.3776019741468229	0.1187013892352732	0.2697967034834117	0.0353699055184958	0.0755960923355005	0.3731532326478863
0.492	0.3787895431696669	0.1183221757563019	0.2684085896840844	0.0349290545377814	0.0753485732971065	0.3692129621338386
0.493	0.3801555038102665	0.1181024739685819	0.2671763954684226	0.0344928884687956	0.0751650382594272	0.3653053858964201
0.494	0.3816956655737874	0.1180398456436842	0.2660973849354491	0.0340618252102035	0.0750461337584107	0.3614339918178296
0.495	0.3834057237706131	0.1181317552255532	0.2651687193189848	0.0336362670714437	0.0749924943580085	0.3576021906162669
0.496	0.3852812664683069	0.1183755733028843	0.2643874614583446	0.0332166007408853	0.0750047407852233	0.353813312453878
0.497	0.387317781447101	0.1187685800951014	0.2637505802866154	0.0328031972714245	0.0750834780475951	0.3500706037237918
0.498	0.389510663148047	0.1193079689477046	0.2632549553330444	0.0323964120826643	0.0752292935369545	0.3463772240184927
0.499	0.3918552196028353	0.1199908498334937	0.2628973812368494	0.0319965849789313	0.0754427551233121	0.3427362432812637
0.5	0.3943466793343487	0.1208142528566871	0.2626745722701015	0.0316040401824125	0.0757244092429702	0.3391506391419729
0.501	0.3969801982171768	0.1217751317572187	0.2625831668681765	0.0312190863807803	0.0760747789851387	0.3356232944380574
0.502	0.3997508662874582	0.122870367412783	0.2626197321659412	0.0308420167887347	0.0764943621814372	0.332156994921274
0.503	0.4026537144923569	0.1240967713363315	0.2627807685392026	0.0304731092228601	0.0769836295027576	0.3287544271505259
0.504	0.4056837213702189	0.1254510891668611	0.2630627141497629	0.0301126261892933	0.0775430225679649	0.3254181765706468
0.505	0.4088358196534162	0.1269300041514694	0.2634619494939912	0.0297608149836502	0.0781729520688205	0.3221507257766784
0.506	0.4121049027865329	0.1285301406164885	0.2639748019528063	0.0294179078027329	0.0788737959153867	0.3189544529625934
0.507	0.4154858313522603	0.1302480674255696	0.2645975503421972	0.029084121867582	0.0796458974060733	0.315831630552633
0.508	0.4189734393969527	0.1320803014221018	0.2653264294621744	0.0287596595575048	0.0804895634262981	0.3127844240126646
0.509	0.4225625406467727	0.1340233108537606	0.2661576346426325	0.0284447085548074	0.0814050626796246	0.309814890838214
0.51	0.4262479346050411	0.1360735187770091	0.2670873262842168	0.0281394420000317	0.0823926239550175	0.3069249797154001
0.511	0.4300244125214807	0.1382273064395546	0.268111634392426	0.0278440186576031	0.0834524344338167	0.3041165298508633
0.512	0.4338867632243978	0.1404810166391788	0.2692266631028236	0.0275585830917964	0.0845846380399809	0.3013912704664808
0.513	0.4378297788076473	0.1428309570572077	0.2704284951952517	0.0272832658529837	0.0857893338370825	0.2987508204543401
0.514	0.4418482601646866	0.1452734035650298	0.2717131965940696	0.0270181836740523	0.0870665744755548	0.2961966881867492
0.515	0.4459370223620617	0.1478046035022644	0.2730768208513466	0.0267634396768863	0.088416364693621	0.2937302714755168
0.516	0.4500908998446101	0.1504207789252503	0.2745154136087341	0.0265191235887043	0.0898386598753569	0.2913528576741244
0.517	0.4543047514647192	0.1531181298243356	0.2760250170333112	0.0262853119680392	0.0913333646692998	0.2890656239163333
0.518	0.4585734653283667	0.1558928373086956	0.277601674222163	0.026062068439971	0.0929003316709974	0.2868696374847949
0.519	0.4628919634518208	0.1587410667572226	0.2792414335696906	0.0258494439402473	0.0945393601728001	0.284765856303598
0.52	0.4672552062238256	0.1616589709337688	0.2809403530923884	0.0256474769677726	0.0962501949840259	0.2827551295494371
0.521	0.4716581966690115	0.1646426930649857	0.2826945047046822	0.0254561938449836	0.0980325253246501	0.2808381983770657
0.522	0.4760959845089524	0.1676883698783876	0.2844999784402309	0.0252756089855777	0.0998859837956547	0.2790156967558952
0.523	0.4805636700181497	0.1707921345983506	0.2863528866120376	0.0251057251691393	0.1018101454292945	0.2772881524156904
0.524	0.4850564076732537	0.1739501198974216	0.2882493679056379	0.0249465338221645	0.1038045268225485	0.2756559879000232
0.525	0.4895694095946295	0.1771584608000515	0.2901855913987575	0.024798015305018	0.1058685853570532	0.2741195217266976
0.526	0.4940979487798684	0.180413297535968	0.2921577605018395	0.0246601392043196	0.1080017185086558	0.2726789696543019
0.527	0.4986373621299656	0.1837107783399854	0.2941621168147388	0.0245328646302829	0.110203263249594	0.2713344460540665
0.528	0.5031830532706472	0.1870470621955958	0.2961949438948573	0.0244161405185589	0.1124724955461143	0.2700859653856617
0.529	0.5077304951737351	0.1904183215198507	0.2982525709334265	0.0243099059361221	0.1148086299540224	0.2689334437753334
0.53	0.5122752325857352	0.1938207447871482	0.3003313763363565	0.0242140903907694	0.1172108193144097	0.2678767006943626
0.531	0.5168128842727925	0.197250539090237	0.3024277912058852	0.0241286141437858	0.1196781545515638	0.2669154607354575
0.532	0.5213391450922618	0.2007039326367818	0.3045383027200973	0.0240533885253236	0.1222096645746673	0.2660493554845078
0.533	0.5258497879018893	0.2041771771803996	0.3066594574073527	0.0239883162520226	0.1248043162847704	0.2652779254849241
0.534	0.530340665317862	0.2076665503858934	0.3087878643130979	0.0239332917463656	0.1274610146882167	0.2646006222922101
0.535	0.5348077113324077	0.2111683581289466	0.3109201980579806	0.0238882014572656	0.1301786031177722	0.2640168106171878
0.536	0.5392469428007189	0.2146789367318567	0.3130532017855021	0.0238529241813615	0.1329558635626654	0.2635257705571662
0.537	0.5436544608051713	0.2181946551376892	0.3151836899986677	0.023827331384526	0.135791517108843	0.2631266999150846
0.538	0.5480264519034962	0.2217119170265989	0.3173085512842241	0.0238112875231196	0.1386842244907486	0.2628187166071859
0.539	0.5523591892663958	0.2252271628782974	0.319424750923724	0.0238046503645576	0.1416325867558318	0.2626008611602242
0.54	0.5566490337095913	0.2287368719855436	0.3215293333895122	0.0238072713067479	0.1446351460429411	0.262472099299698
0.541	0.5608924346249451	0.2322375644232239	0.3236194247238421	0.0238189956959778	0.1476903864756056	0.2624313246311097
0.542	0.5650859308152401	0.2357258029778911	0.3256922347976963	0.0238396631427487	0.1507967351712967	0.2624773614167237
0.543	0.5692261512373239	0.2391981950421971	0.3277450594464216	0.0238691078351189	0.1539525633678519	0.2626089674503842
0.544	0.5733098156588509	0.2426513944786489	0.3297752824776088	0.0239071588490631	0.1571561876682886	0.2628248370329779
0.545	0.577333735234348	0.2460821034566566	0.3317803775476126	0.0239536404553904	0.1604058714054154	0.263123604050678
0.546	0.5812948130063184	0.2494870742667326	0.3337579099020069	0.0240083724227314	0.1636998261275422	0.2635038451575831
0.547	0.5851900443370879	0.252863111115055	0.3357055379763032	0.0240711703161549	0.1670362132065556	0.2639640830637726
0.548	0.5890165172767948	0.2562070719013469	0.3376210148521832	0.0241418457909253	0.1704131455693804	0.2645027899291269
0.549	0.5927714128729737	0.2595158699823327	0.3395021895656179	0.0242202068809864	0.1738286895535819	0.2651183908626254
0.55	0.5964520054273048	0.2627864759225555	0.341347008262684	0.024306058281729	0.1772808668875778	0.2658092675259964
